<svg width="60" height="48" viewBox="0 0 60 48" fill="none" xmlns="http://www.w3.org/2000/svg">
<path d="M22.875 36H19.125C18.4688 36 18 36.5625 18 37.125V40.875C18 41.5312 18.4688 42 19.125 42H22.875C23.4375 42 24 41.5312 24 40.875V37.125C24 36.5625 23.4375 36 22.875 36ZM22.875 18H19.125C18.4688 18 18 18.5625 18 19.125V22.875C18 23.5312 18.4688 24 19.125 24H22.875C23.4375 24 24 23.5312 24 22.875V19.125C24 18.5625 23.4375 18 22.875 18ZM13.875 18H10.125C9.46875 18 9 18.5625 9 19.125V22.875C9 23.5312 9.46875 24 10.125 24H13.875C14.4375 24 15 23.5312 15 22.875V19.125C15 18.5625 14.4375 18 13.875 18ZM13.875 36H10.125C9.46875 36 9 36.5625 9 37.125V40.875C9 41.5312 9.46875 42 10.125 42H13.875C14.4375 42 15 41.5312 15 40.875V37.125C15 36.5625 14.4375 36 13.875 36ZM13.875 27H10.125C9.46875 27 9 27.5625 9 28.125V31.875C9 32.5312 9.46875 33 10.125 33H13.875C14.4375 33 15 32.5312 15 31.875V28.125C15 27.5625 14.4375 27 13.875 27ZM22.875 27H19.125C18.4688 27 18 27.5625 18 28.125V31.875C18 32.5312 18.4688 33 19.125 33H22.875C23.4375 33 24 32.5312 24 31.875V28.125C24 27.5625 23.4375 27 22.875 27ZM49.875 36H46.125C45.4688 36 45 36.5625 45 37.125V40.875C45 41.5312 45.4688 42 46.125 42H49.875C50.4375 42 51 41.5312 51 40.875V37.125C51 36.5625 50.4375 36 49.875 36ZM49.875 27H46.125C45.4688 27 45 27.5625 45 28.125V31.875C45 32.5312 45.4688 33 46.125 33H49.875C50.4375 33 51 32.5312 51 31.875V28.125C51 27.5625 50.4375 27 49.875 27ZM57.75 18H48V2.25C48 1.03125 46.9688 0 45.75 0H26.25C24.9375 0 24 1.03125 24 2.25V9H21V1.5C21 0.75 20.25 0 19.5 0H18C17.1562 0 16.5 0.75 16.5 1.5V9H10.5V1.5C10.5 0.75 9.75 0 9 0H7.5C6.65625 0 6 0.75 6 1.5V9H2.25C0.9375 9 0 10.0312 0 11.25V46.5C0 47.3438 0.65625 48 1.5 48H3C3.75 48 4.5 47.3438 4.5 46.5V13.5H28.5V4.5H43.5V22.5H55.5V46.5C55.5 47.3438 56.1562 48 57 48H58.5C59.25 48 60 47.3438 60 46.5V20.25C60 19.0312 58.9688 18 57.75 18ZM37.875 9H34.125C33.4688 9 33 9.5625 33 10.125V13.875C33 14.5312 33.4688 15 34.125 15H37.875C38.4375 15 39 14.5312 39 13.875V10.125C39 9.5625 38.4375 9 37.875 9ZM37.875 27H34.125C33.4688 27 33 27.5625 33 28.125V31.875C33 32.5312 33.4688 33 34.125 33H37.875C38.4375 33 39 32.5312 39 31.875V28.125C39 27.5625 38.4375 27 37.875 27ZM37.875 18H34.125C33.4688 18 33 18.5625 33 19.125V22.875C33 23.5312 33.4688 24 34.125 24H37.875C38.4375 24 39 23.5312 39 22.875V19.125C39 18.5625 38.4375 18 37.875 18Z" fill="#F7654A"/>
<path d="M48 18H47V19H48V18ZM24 9V10H25V9H24ZM21 9H20V10H21V9ZM16.5 9V10H17.5V9H16.5ZM10.5 9H9.5V10H10.5V9ZM6 9V10H7V9H6ZM4.5 13.5V12.5H3.5V13.5H4.5ZM28.5 13.5V14.5H29.5V13.5H28.5ZM28.5 4.5V3.5H27.5V4.5H28.5ZM43.5 4.5H44.5V3.5H43.5V4.5ZM43.5 22.5H42.5V23.5H43.5V22.5ZM55.5 22.5H56.5V21.5H55.5V22.5ZM22.875 35H19.125V37H22.875V35ZM19.125 35C17.8634 35 17 36.0648 17 37.125H19C19 37.1227 19.0007 37.1109 19.0084 37.0921C19.0161 37.0734 19.0282 37.0543 19.0434 37.0382C19.0582 37.0225 19.0726 37.0132 19.084 37.008C19.0939 37.0036 19.1062 37 19.125 37V35ZM17 37.125V40.875H19V37.125H17ZM17 40.875C17 42.0835 17.9165 43 19.125 43V41C19.0807 41 19.0544 40.9923 19.042 40.9873C19.0298 40.9825 19.0251 40.9781 19.0235 40.9765C19.0219 40.9749 19.0175 40.9702 19.0127 40.958C19.0077 40.9456 19 40.9193 19 40.875H17ZM19.125 43H22.875V41H19.125V43ZM22.875 43C23.9352 43 25 42.1366 25 40.875H23C23 40.8938 22.9964 40.9061 22.9919 40.916C22.9868 40.9274 22.9775 40.9418 22.9618 40.9566C22.9457 40.9718 22.9266 40.9839 22.9079 40.9916C22.8891 40.9993 22.8773 41 22.875 41V43ZM25 40.875V37.125H23V40.875H25ZM25 37.125C25 36.5185 24.7068 35.9957 24.3555 35.6445C24.0043 35.2932 23.4815 35 22.875 35V37C22.8492 37 22.846 36.9939 22.8652 37.0029C22.8844 37.0118 22.9126 37.03 22.9413 37.0587C22.97 37.0874 22.9882 37.1156 22.9971 37.1348C23.0061 37.154 23 37.1508 23 37.125H25ZM22.875 17H19.125V19H22.875V17ZM19.125 17C17.8634 17 17 18.0648 17 19.125H19C19 19.1227 19.0007 19.1109 19.0084 19.0921C19.0161 19.0734 19.0282 19.0543 19.0434 19.0382C19.0582 19.0225 19.0726 19.0132 19.084 19.0081C19.0939 19.0036 19.1062 19 19.125 19V17ZM17 19.125V22.875H19V19.125H17ZM17 22.875C17 24.0835 17.9165 25 19.125 25V23C19.0807 23 19.0544 22.9923 19.042 22.9873C19.0298 22.9825 19.0251 22.9781 19.0235 22.9765C19.0219 22.9749 19.0175 22.9702 19.0127 22.958C19.0077 22.9456 19 22.9193 19 22.875H17ZM19.125 25H22.875V23H19.125V25ZM22.875 25C23.9352 25 25 24.1366 25 22.875H23C23 22.8938 22.9964 22.9061 22.9919 22.916C22.9868 22.9274 22.9775 22.9418 22.9618 22.9566C22.9457 22.9718 22.9266 22.9839 22.9079 22.9916C22.8891 22.9993 22.8773 23 22.875 23V25ZM25 22.875V19.125H23V22.875H25ZM25 19.125C25 18.5185 24.7068 17.9957 24.3555 17.6445C24.0043 17.2932 23.4815 17 22.875 17V19C22.8492 19 22.846 18.9939 22.8652 19.0029C22.8844 19.0118 22.9126 19.03 22.9413 19.0587C22.97 19.0874 22.9882 19.1156 22.9971 19.1348C23.0061 19.154 23 19.1508 23 19.125H25ZM13.875 17H10.125V19H13.875V17ZM10.125 17C8.86338 17 8 18.0648 8 19.125H10C10 19.1227 10.0007 19.1109 10.0084 19.0921C10.0161 19.0734 10.0282 19.0543 10.0434 19.0382C10.0582 19.0225 10.0726 19.0132 10.084 19.0081C10.0939 19.0036 10.1062 19 10.125 19V17ZM8 19.125V22.875H10V19.125H8ZM8 22.875C8 24.0835 8.91646 25 10.125 25V23C10.0807 23 10.0544 22.9923 10.042 22.9873C10.0298 22.9825 10.0251 22.9781 10.0235 22.9765C10.0219 22.9749 10.0175 22.9702 10.0127 22.958C10.0077 22.9456 10 22.9193 10 22.875H8ZM10.125 25H13.875V23H10.125V25ZM13.875 25C14.9352 25 16 24.1366 16 22.875H14C14 22.8938 13.9964 22.9061 13.992 22.916C13.9868 22.9274 13.9775 22.9418 13.9618 22.9566C13.9457 22.9718 13.9266 22.9839 13.9079 22.9916C13.8891 22.9993 13.8773 23 13.875 23V25ZM16 22.875V19.125H14V22.875H16ZM16 19.125C16 18.5185 15.7068 17.9957 15.3555 17.6445C15.0043 17.2932 14.4815 17 13.875 17V19C13.8492 19 13.846 18.9939 13.8652 19.0029C13.8844 19.0118 13.9126 19.03 13.9413 19.0587C13.97 19.0874 13.9882 19.1156 13.9971 19.1348C14.0061 19.154 14 19.1508 14 19.125H16ZM13.875 35H10.125V37H13.875V35ZM10.125 35C8.86338 35 8 36.0648 8 37.125H10C10 37.1227 10.0007 37.1109 10.0084 37.0921C10.0161 37.0734 10.0282 37.0543 10.0434 37.0382C10.0582 37.0225 10.0726 37.0132 10.084 37.008C10.0939 37.0036 10.1062 37 10.125 37V35ZM8 37.125V40.875H10V37.125H8ZM8 40.875C8 42.0835 8.91646 43 10.125 43V41C10.0807 41 10.0544 40.9923 10.042 40.9873C10.0298 40.9825 10.0251 40.9781 10.0235 40.9765C10.0219 40.9749 10.0175 40.9702 10.0127 40.958C10.0077 40.9456 10 40.9193 10 40.875H8ZM10.125 43H13.875V41H10.125V43ZM13.875 43C14.9352 43 16 42.1366 16 40.875H14C14 40.8938 13.9964 40.9061 13.992 40.916C13.9868 40.9274 13.9775 40.9418 13.9618 40.9566C13.9457 40.9718 13.9266 40.9839 13.9079 40.9916C13.8891 40.9993 13.8773 41 13.875 41V43ZM16 40.875V37.125H14V40.875H16ZM16 37.125C16 36.5185 15.7068 35.9957 15.3555 35.6445C15.0043 35.2932 14.4815 35 13.875 35V37C13.8492 37 13.846 36.9939 13.8652 37.0029C13.8844 37.0118 13.9126 37.03 13.9413 37.0587C13.97 37.0874 13.9882 37.1156 13.9971 37.1348C14.0061 37.154 14 37.1508 14 37.125H16ZM13.875 26H10.125V28H13.875V26ZM10.125 26C8.86338 26 8 27.0648 8 28.125H10C10 28.1227 10.0007 28.1109 10.0084 28.0921C10.0161 28.0734 10.0282 28.0543 10.0434 28.0382C10.0582 28.0225 10.0726 28.0132 10.084 28.0081C10.0939 28.0036 10.1062 28 10.125 28V26ZM8 28.125V31.875H10V28.125H8ZM8 31.875C8 33.0835 8.91646 34 10.125 34V32C10.0807 32 10.0544 31.9923 10.042 31.9873C10.0298 31.9825 10.0251 31.9781 10.0235 31.9765C10.0219 31.9749 10.0175 31.9702 10.0127 31.958C10.0077 31.9456 10 31.9193 10 31.875H8ZM10.125 34H13.875V32H10.125V34ZM13.875 34C14.9352 34 16 33.1366 16 31.875H14C14 31.8938 13.9964 31.9061 13.992 31.916C13.9868 31.9274 13.9775 31.9418 13.9618 31.9566C13.9457 31.9718 13.9266 31.9839 13.9079 31.9916C13.8891 31.9993 13.8773 32 13.875 32V34ZM16 31.875V28.125H14V31.875H16ZM16 28.125C16 27.5185 15.7068 26.9957 15.3555 26.6445C15.0043 26.2932 14.4815 26 13.875 26V28C13.8492 28 13.846 27.9939 13.8652 28.0029C13.8844 28.0118 13.9126 28.03 13.9413 28.0587C13.97 28.0874 13.9882 28.1156 13.9971 28.1348C14.0061 28.154 14 28.1508 14 28.125H16ZM22.875 26H19.125V28H22.875V26ZM19.125 26C17.8634 26 17 27.0648 17 28.125H19C19 28.1227 19.0007 28.1109 19.0084 28.0921C19.0161 28.0734 19.0282 28.0543 19.0434 28.0382C19.0582 28.0225 19.0726 28.0132 19.084 28.0081C19.0939 28.0036 19.1062 28 19.125 28V26ZM17 28.125V31.875H19V28.125H17ZM17 31.875C17 33.0835 17.9165 34 19.125 34V32C19.0807 32 19.0544 31.9923 19.042 31.9873C19.0298 31.9825 19.0251 31.9781 19.0235 31.9765C19.0219 31.9749 19.0175 31.9702 19.0127 31.958C19.0077 31.9456 19 31.9193 19 31.875H17ZM19.125 34H22.875V32H19.125V34ZM22.875 34C23.9352 34 25 33.1366 25 31.875H23C23 31.8938 22.9964 31.9061 22.9919 31.916C22.9868 31.9274 22.9775 31.9418 22.9618 31.9566C22.9457 31.9718 22.9266 31.9839 22.9079 31.9916C22.8891 31.9993 22.8773 32 22.875 32V34ZM25 31.875V28.125H23V31.875H25ZM25 28.125C25 27.5185 24.7068 26.9957 24.3555 26.6445C24.0043 26.2932 23.4815 26 22.875 26V28C22.8492 28 22.846 27.9939 22.8652 28.0029C22.8844 28.0118 22.9126 28.03 22.9413 28.0587C22.97 28.0874 22.9882 28.1156 22.9971 28.1348C23.0061 28.154 23 28.1508 23 28.125H25ZM49.875 35H46.125V37H49.875V35ZM46.125 35C44.8634 35 44 36.0648 44 37.125H46C46 37.1227 46.0007 37.1109 46.0084 37.0921C46.0161 37.0734 46.0282 37.0543 46.0434 37.0382C46.0582 37.0225 46.0726 37.0132 46.084 37.008C46.0939 37.0036 46.1062 37 46.125 37V35ZM44 37.125V40.875H46V37.125H44ZM44 40.875C44 42.0835 44.9165 43 46.125 43V41C46.0807 41 46.0544 40.9923 46.042 40.9873C46.0298 40.9825 46.0251 40.9781 46.0235 40.9765C46.0219 40.9749 46.0175 40.9702 46.0127 40.958C46.0077 40.9456 46 40.9193 46 40.875H44ZM46.125 43H49.875V41H46.125V43ZM49.875 43C50.9352 43 52 42.1366 52 40.875H50C50 40.8938 49.9964 40.9061 49.992 40.916C49.9868 40.9274 49.9775 40.9418 49.9618 40.9566C49.9457 40.9718 49.9266 40.9839 49.9079 40.9916C49.8891 40.9993 49.8773 41 49.875 41V43ZM52 40.875V37.125H50V40.875H52ZM52 37.125C52 36.5185 51.7068 35.9957 51.3555 35.6445C51.0043 35.2932 50.4815 35 49.875 35V37C49.8492 37 49.846 36.9939 49.8652 37.0029C49.8844 37.0118 49.9126 37.03 49.9413 37.0587C49.97 37.0874 49.9882 37.1156 49.9971 37.1348C50.0061 37.154 50 37.1508 50 37.125H52ZM49.875 26H46.125V28H49.875V26ZM46.125 26C44.8634 26 44 27.0648 44 28.125H46C46 28.1227 46.0007 28.1109 46.0084 28.0921C46.0161 28.0734 46.0282 28.0543 46.0434 28.0382C46.0582 28.0225 46.0726 28.0132 46.084 28.0081C46.0939 28.0036 46.1062 28 46.125 28V26ZM44 28.125V31.875H46V28.125H44ZM44 31.875C44 33.0835 44.9165 34 46.125 34V32C46.0807 32 46.0544 31.9923 46.042 31.9873C46.0298 31.9825 46.0251 31.9781 46.0235 31.9765C46.0219 31.9749 46.0175 31.9702 46.0127 31.958C46.0077 31.9456 46 31.9193 46 31.875H44ZM46.125 34H49.875V32H46.125V34ZM49.875 34C50.9352 34 52 33.1366 52 31.875H50C50 31.8938 49.9964 31.9061 49.992 31.916C49.9868 31.9274 49.9775 31.9418 49.9618 31.9566C49.9457 31.9718 49.9266 31.9839 49.9079 31.9916C49.8891 31.9993 49.8773 32 49.875 32V34ZM52 31.875V28.125H50V31.875H52ZM52 28.125C52 27.5185 51.7068 26.9957 51.3555 26.6445C51.0043 26.2932 50.4815 26 49.875 26V28C49.8492 28 49.846 27.9939 49.8652 28.0029C49.8844 28.0118 49.9126 28.03 49.9413 28.0587C49.97 28.0874 49.9882 28.1156 49.9971 28.1348C50.0061 28.154 50 28.1508 50 28.125H52ZM57.75 17H48V19H57.75V17ZM49 18V2.25H47V18H49ZM49 2.25C49 0.478965 47.521 -1 45.75 -1V1C46.4165 1 47 1.58353 47 2.25H49ZM45.75 -1H26.25V1H45.75V-1ZM26.25 -1C24.3581 -1 23 0.506488 23 2.25H25C25 1.55601 25.5169 1 26.25 1V-1ZM23 2.25V9H25V2.25H23ZM24 8H21V10H24V8ZM22 9V1.5H20V9H22ZM22 1.5C22 0.799768 21.66 0.183239 21.2384 -0.238357C20.8168 -0.659953 20.2002 -1 19.5 -1V1C19.5498 1 19.6832 1.03495 19.8241 1.17586C19.965 1.31676 20 1.45023 20 1.5H22ZM19.5 -1H18V1H19.5V-1ZM18 -1C16.5643 -1 15.5 0.238252 15.5 1.5H17.5C17.5 1.41061 17.5443 1.27679 17.6556 1.16066C17.7611 1.0505 17.8844 1 18 1V-1ZM15.5 1.5V9H17.5V1.5H15.5ZM16.5 8H10.5V10H16.5V8ZM11.5 9V1.5H9.5V9H11.5ZM11.5 1.5C11.5 0.799768 11.16 0.183239 10.7384 -0.238357C10.3168 -0.659953 9.70023 -1 9 -1V1C9.04977 1 9.18324 1.03495 9.32414 1.17586C9.46505 1.31676 9.5 1.45023 9.5 1.5H11.5ZM9 -1H7.5V1H9V-1ZM7.5 -1C6.06428 -1 5 0.238252 5 1.5H7C7 1.41061 7.04428 1.27679 7.15558 1.16066C7.26115 1.0505 7.3844 1 7.5 1V-1ZM5 1.5V9H7V1.5H5ZM6 8H2.25V10H6V8ZM2.25 8C0.358088 8 -1 9.50649 -1 11.25H1C1 10.556 1.51691 10 2.25 10V8ZM-1 11.25V46.5H1V11.25H-1ZM-1 46.5C-1 47.896 0.103965 49 1.5 49V47C1.20853 47 1 46.7915 1 46.5H-1ZM1.5 49H3V47H1.5V49ZM3 49C4.26175 49 5.5 47.9357 5.5 46.5H3.5C3.5 46.6156 3.4495 46.7389 3.33934 46.8444C3.22321 46.9557 3.08939 47 3 47V49ZM5.5 46.5V13.5H3.5V46.5H5.5ZM4.5 14.5H28.5V12.5H4.5V14.5ZM29.5 13.5V4.5H27.5V13.5H29.5ZM28.5 5.5H43.5V3.5H28.5V5.5ZM42.5 4.5V22.5H44.5V4.5H42.5ZM43.5 23.5H55.5V21.5H43.5V23.5ZM54.5 22.5V46.5H56.5V22.5H54.5ZM54.5 46.5C54.5 47.896 55.604 49 57 49V47C56.7085 47 56.5 46.7915 56.5 46.5H54.5ZM57 49H58.5V47H57V49ZM58.5 49C59.7617 49 61 47.9357 61 46.5H59C59 46.6156 58.9495 46.7389 58.8393 46.8444C58.7232 46.9557 58.5894 47 58.5 47V49ZM61 46.5V20.25H59V46.5H61ZM61 20.25C61 18.479 59.521 17 57.75 17V19C58.4165 19 59 19.5835 59 20.25H61ZM37.875 8H34.125V10H37.875V8ZM34.125 8C32.8634 8 32 9.06484 32 10.125H34C34 10.1227 34.0007 10.1109 34.0084 10.0921C34.0161 10.0734 34.0282 10.0543 34.0434 10.0382C34.0582 10.0225 34.0726 10.0132 34.084 10.008C34.0939 10.0036 34.1062 10 34.125 10V8ZM32 10.125V13.875H34V10.125H32ZM32 13.875C32 15.0835 32.9165 16 34.125 16V14C34.0807 14 34.0544 13.9923 34.042 13.9873C34.0298 13.9825 34.0251 13.9781 34.0235 13.9765C34.0219 13.9749 34.0175 13.9702 34.0127 13.958C34.0077 13.9456 34 13.9193 34 13.875H32ZM34.125 16H37.875V14H34.125V16ZM37.875 16C38.9352 16 40 15.1366 40 13.875H38C38 13.8938 37.9964 13.9061 37.992 13.916C37.9868 13.9274 37.9775 13.9418 37.9618 13.9566C37.9457 13.9718 37.9266 13.9839 37.9079 13.9916C37.8891 13.9993 37.8773 14 37.875 14V16ZM40 13.875V10.125H38V13.875H40ZM40 10.125C40 9.51852 39.7068 8.99574 39.3555 8.64446C39.0043 8.29317 38.4815 8 37.875 8V10C37.8492 10 37.846 9.99391 37.8652 10.0029C37.8844 10.0118 37.9126 10.03 37.9413 10.0587C37.97 10.0874 37.9882 10.1156 37.9971 10.1348C38.0061 10.154 38 10.1508 38 10.125H40ZM37.875 26H34.125V28H37.875V26ZM34.125 26C32.8634 26 32 27.0648 32 28.125H34C34 28.1227 34.0007 28.1109 34.0084 28.0921C34.0161 28.0734 34.0282 28.0543 34.0434 28.0382C34.0582 28.0225 34.0726 28.0132 34.084 28.0081C34.0939 28.0036 34.1062 28 34.125 28V26ZM32 28.125V31.875H34V28.125H32ZM32 31.875C32 33.0835 32.9165 34 34.125 34V32C34.0807 32 34.0544 31.9923 34.042 31.9873C34.0298 31.9825 34.0251 31.9781 34.0235 31.9765C34.0219 31.9749 34.0175 31.9702 34.0127 31.958C34.0077 31.9456 34 31.9193 34 31.875H32ZM34.125 34H37.875V32H34.125V34ZM37.875 34C38.9352 34 40 33.1366 40 31.875H38C38 31.8938 37.9964 31.9061 37.992 31.916C37.9868 31.9274 37.9775 31.9418 37.9618 31.9566C37.9457 31.9718 37.9266 31.9839 37.9079 31.9916C37.8891 31.9993 37.8773 32 37.875 32V34ZM40 31.875V28.125H38V31.875H40ZM40 28.125C40 27.5185 39.7068 26.9957 39.3555 26.6445C39.0043 26.2932 38.4815 26 37.875 26V28C37.8492 28 37.846 27.9939 37.8652 28.0029C37.8844 28.0118 37.9126 28.03 37.9413 28.0587C37.97 28.0874 37.9882 28.1156 37.9971 28.1348C38.0061 28.154 38 28.1508 38 28.125H40ZM37.875 17H34.125V19H37.875V17ZM34.125 17C32.8634 17 32 18.0648 32 19.125H34C34 19.1227 34.0007 19.1109 34.0084 19.0921C34.0161 19.0734 34.0282 19.0543 34.0434 19.0382C34.0582 19.0225 34.0726 19.0132 34.084 19.0081C34.0939 19.0036 34.1062 19 34.125 19V17ZM32 19.125V22.875H34V19.125H32ZM32 22.875C32 24.0835 32.9165 25 34.125 25V23C34.0807 23 34.0544 22.9923 34.042 22.9873C34.0298 22.9825 34.0251 22.9781 34.0235 22.9765C34.0219 22.9749 34.0175 22.9702 34.0127 22.958C34.0077 22.9456 34 22.9193 34 22.875H32ZM34.125 25H37.875V23H34.125V25ZM37.875 25C38.9352 25 40 24.1366 40 22.875H38C38 22.8938 37.9964 22.9061 37.992 22.916C37.9868 22.9274 37.9775 22.9418 37.9618 22.9566C37.9457 22.9718 37.9266 22.9839 37.9079 22.9916C37.8891 22.9993 37.8773 23 37.875 23V25ZM40 22.875V19.125H38V22.875H40ZM40 19.125C40 18.5185 39.7068 17.9957 39.3555 17.6445C39.0043 17.2932 38.4815 17 37.875 17V19C37.8492 19 37.846 18.9939 37.8652 19.0029C37.8844 19.0118 37.9126 19.03 37.9413 19.0587C37.97 19.0874 37.9882 19.1156 37.9971 19.1348C38.0061 19.154 38 19.1508 38 19.125H40Z" fill="black"/>
</svg>
